<?xml version="1.0" encoding="UTF-8"?>
<svg width="48px" height="24px" viewBox="0 0 48 24" version="1.1" xmlns="http://www.w3.org/2000/svg" xmlns:xlink="http://www.w3.org/1999/xlink">
    <!-- Generator: Sketch 48 (47235) - http://www.bohemiancoding.com/sketch -->
    <title>ox3000_b2</title>
    <desc>Created with Sketch.</desc>
    <defs>
        <rect id="path-1" x="0" y="0" width="48" height="24" rx="12"></rect>
    </defs>
    <g id="entry-icons" stroke="none" stroke-width="1" fill="none" fill-rule="evenodd" transform="translate(-543.000000, -224.000000)">
        <g id="ox3000_b2" transform="translate(543.000000, 224.000000)">
            <g id="Rectangle">
                <use fill="#FFFFFF" fill-rule="evenodd" xlink:href="#path-1"></use>
                <rect stroke="#1A3561" stroke-width="1" x="0.5" y="0.5" width="47" height="23" rx="11.5"></rect>
            </g>
            <path d="M0,12 C0,18.6277902 5.37220982,24 12,24 C18.6277902,24 24,18.6277902 24,12 C24,5.37220982 18.6277902,0 12,0 C5.37220982,0 0,5.37220982 0,12 Z" id="Fill-5" fill="#1A3561"></path>
            <path d="M6.96468912,3.91490543 C6.32272602,4.51118429 6,5.22898737 6,6.06507402 C6,6.91898423 6.32272602,7.63516698 6.9856227,8.23306616 C7.62933027,8.79045726 8.40038378,9.08859669 9.3005277,9.08859669 L9.8779456,9.08859669 L9.90062365,20.0322581 L17.6129032,20.0144345 L17.6129032,18.0036137 L15.7271366,18.0036137 L15.7271366,16.1126968 L17.6129032,16.1126968 L17.5902252,14.0840524 L13.0912501,14.1034963 L13.0912501,9.08859669 L13.5622556,9.08859669 C14.4623995,9.06915282 15.233453,8.77101339 15.8771606,8.19417841 C16.4981901,7.59627923 16.8191717,6.88009648 16.8191717,6.02456595 C16.8191717,5.18847929 16.4981901,4.47229654 15.8544825,3.87439736 C15.2125194,3.2781185 14.4414659,2.97997908 13.541322,3.00104328 L9.27959412,3.00104328 C8.37770574,3.00104328 7.60665223,3.29756238 6.96468912,3.91490543 Z M13.1121836,4.83038791 C13.8623036,4.83038791 14.4205324,5.32782707 14.4205324,6.02456595 C14.4205324,6.68079675 13.8623036,7.25763173 13.1121836,7.25763173 L9.70698804,7.25763173 C9.00047973,7.25763173 8.40038378,6.70024063 8.40038378,6.04400982 C8.40038378,5.34727094 9.00047973,4.83038791 9.70698804,4.83038791 L13.1121836,4.83038791 Z" id="Fill-7" fill="#FFFFFF"></path>
            <g id="Group" transform="translate(27.000000, 7.000000)" fill="#1A3561" fill-rule="nonzero">
                <path d="M0.024,0.24 C0.576,0.12 1.608,0.048 2.616,0.048 C3.936,0.048 4.752,0.216 5.4,0.672 C6,1.032 6.408,1.68 6.408,2.496 C6.408,3.384 5.856,4.224 4.8,4.608 L4.8,4.632 C5.832,4.896 6.768,5.712 6.768,7.056 C6.768,7.92 6.384,8.592 5.832,9.072 C5.136,9.672 3.984,9.984 2.208,9.984 C1.224,9.984 0.48,9.912 0.024,9.864 L0.024,0.24 Z M1.776,4.08 L2.688,4.08 C3.912,4.08 4.608,3.504 4.608,2.688 C4.608,1.776 3.912,1.368 2.784,1.368 C2.256,1.368 1.968,1.392 1.776,1.44 L1.776,4.08 Z M1.776,8.568 C2.016,8.592 2.304,8.616 2.712,8.616 C3.864,8.616 4.872,8.184 4.872,6.984 C4.872,5.856 3.888,5.4 2.664,5.4 L1.776,5.4 L1.776,8.568 Z" id="Shape"></path>
                <path d="M7.824,9.84 L7.824,8.76 L8.928,7.728 C11.136,5.664 12.192,4.536 12.192,3.312 C12.192,2.472 11.736,1.728 10.512,1.728 C9.696,1.728 8.976,2.136 8.496,2.52 L7.968,1.272 C8.64,0.72 9.672,0.312 10.848,0.312 C12.936,0.312 13.944,1.632 13.944,3.168 C13.944,4.824 12.768,6.144 11.136,7.656 L10.32,8.376 L10.32,8.4 L14.184,8.4 L14.184,9.84 L7.824,9.84 Z" id="Shape"></path>
            </g>
        </g>
    </g>
</svg>