<?xml version="1.0" encoding="UTF-8"?>
<svg width="48px" height="24px" viewBox="0 0 48 24" version="1.1" xmlns="http://www.w3.org/2000/svg" xmlns:xlink="http://www.w3.org/1999/xlink">
    <!-- Generator: Sketch 48 (47235) - http://www.bohemiancoding.com/sketch -->
    <title>ox3000_c1</title>
    <desc>Created with Sketch.</desc>
    <defs>
        <rect id="path-1" x="0" y="0" width="48" height="24" rx="12"></rect>
    </defs>
    <g id="entry-icons" stroke="none" stroke-width="1" fill="none" fill-rule="evenodd" transform="translate(-543.000000, -264.000000)">
        <g id="ox3000_c1" transform="translate(543.000000, 264.000000)">
            <g id="Rectangle">
                <use fill="#FFFFFF" fill-rule="evenodd" xlink:href="#path-1"></use>
                <rect stroke="#1A3561" stroke-width="1" x="0.5" y="0.5" width="47" height="23" rx="11.5"></rect>
            </g>
            <path d="M0,12 C0,18.6277902 5.37220982,24 12,24 C18.6277902,24 24,18.6277902 24,12 C24,5.37220982 18.6277902,0 12,0 C5.37220982,0 0,5.37220982 0,12 Z" id="Fill-5" fill="#1A3561"></path>
            <path d="M6.96468912,3.91490543 C6.32272602,4.51118429 6,5.22898737 6,6.06507402 C6,6.91898423 6.32272602,7.63516698 6.9856227,8.23306616 C7.62933027,8.79045726 8.40038378,9.08859669 9.3005277,9.08859669 L9.8779456,9.08859669 L9.90062365,20.0322581 L17.6129032,20.0144345 L17.6129032,18.0036137 L15.7271366,18.0036137 L15.7271366,16.1126968 L17.6129032,16.1126968 L17.5902252,14.0840524 L13.0912501,14.1034963 L13.0912501,9.08859669 L13.5622556,9.08859669 C14.4623995,9.06915282 15.233453,8.77101339 15.8771606,8.19417841 C16.4981901,7.59627923 16.8191717,6.88009648 16.8191717,6.02456595 C16.8191717,5.18847929 16.4981901,4.47229654 15.8544825,3.87439736 C15.2125194,3.2781185 14.4414659,2.97997908 13.541322,3.00104328 L9.27959412,3.00104328 C8.37770574,3.00104328 7.60665223,3.29756238 6.96468912,3.91490543 Z M13.1121836,4.83038791 C13.8623036,4.83038791 14.4205324,5.32782707 14.4205324,6.02456595 C14.4205324,6.68079675 13.8623036,7.25763173 13.1121836,7.25763173 L9.70698804,7.25763173 C9.00047973,7.25763173 8.40038378,6.70024063 8.40038378,6.04400982 C8.40038378,5.34727094 9.00047973,4.83038791 9.70698804,4.83038791 L13.1121836,4.83038791 Z" id="Fill-7" fill="#FFFFFF"></path>
            <path d="M27,11.956 C27,8.532 29.144,6.5 31.832,6.5 C33.096,6.5 34.152,7.124 34.808,7.828 L33.768,8.98 C33.24,8.452 32.648,8.116 31.848,8.116 C30.12,8.116 28.904,9.556 28.904,11.908 C28.904,14.292 30.024,15.732 31.784,15.732 C32.712,15.732 33.384,15.348 33.976,14.692 L35.016,15.828 C34.168,16.804 33.064,17.348 31.752,17.348 C29.08,17.348 27,15.428 27,11.956 Z M36.2301176,17.156 L36.2301176,15.652 L38.5021176,15.652 L38.5021176,8.964 L36.6301176,8.964 L36.6301176,7.812 C37.6381176,7.62 38.3421176,7.364 38.9821176,6.98 L40.3581176,6.98 L40.3581176,15.652 L42.3581176,15.652 L42.3581176,17.156 L36.2301176,17.156 Z" id="C1" fill="#1A3561"></path>
        </g>
    </g>
</svg>