<?xml version="1.0" encoding="UTF-8"?>
<svg width="48px" height="24px" viewBox="0 0 48 24" version="1.1" xmlns="http://www.w3.org/2000/svg" xmlns:xlink="http://www.w3.org/1999/xlink">
    <!-- Generator: Sketch 48 (47235) - http://www.bohemiancoding.com/sketch -->
    <title>ox3000_a1</title>
    <desc>Created with Sketch.</desc>
    <defs>
        <rect id="path-1" x="0" y="0" width="48" height="24" rx="12"></rect>
    </defs>
    <g id="entry-icons" stroke="none" stroke-width="1" fill="none" fill-rule="evenodd" transform="translate(-543.000000, -104.000000)">
        <g id="ox3000_a1" transform="translate(543.000000, 104.000000)">
            <g id="Rectangle">
                <use fill="#FFFFFF" fill-rule="evenodd" xlink:href="#path-1"></use>
                <rect stroke="#1A3561" stroke-width="1" x="0.5" y="0.5" width="47" height="23" rx="11.5"></rect>
            </g>
            <path d="M0,12 C0,18.6277902 5.37220982,24 12,24 C18.6277902,24 24,18.6277902 24,12 C24,5.37220982 18.6277902,0 12,0 C5.37220982,0 0,5.37220982 0,12 Z" id="Fill-5" fill="#1A3561"></path>
            <path d="M6.96468912,3.91490543 C6.32272602,4.51118429 6,5.22898737 6,6.06507402 C6,6.91898423 6.32272602,7.63516698 6.9856227,8.23306616 C7.62933027,8.79045726 8.40038378,9.08859669 9.3005277,9.08859669 L9.8779456,9.08859669 L9.90062365,20.0322581 L17.6129032,20.0144345 L17.6129032,18.0036137 L15.7271366,18.0036137 L15.7271366,16.1126968 L17.6129032,16.1126968 L17.5902252,14.0840524 L13.0912501,14.1034963 L13.0912501,9.08859669 L13.5622556,9.08859669 C14.4623995,9.06915282 15.233453,8.77101339 15.8771606,8.19417841 C16.4981901,7.59627923 16.8191717,6.88009648 16.8191717,6.02456595 C16.8191717,5.18847929 16.4981901,4.47229654 15.8544825,3.87439736 C15.2125194,3.2781185 14.4414659,2.97997908 13.541322,3.00104328 L9.27959412,3.00104328 C8.37770574,3.00104328 7.60665223,3.29756238 6.96468912,3.91490543 Z M13.1121836,4.83038791 C13.8623036,4.83038791 14.4205324,5.32782707 14.4205324,6.02456595 C14.4205324,6.68079675 13.8623036,7.25763173 13.1121836,7.25763173 L9.70698804,7.25763173 C9.00047973,7.25763173 8.40038378,6.70024063 8.40038378,6.04400982 C8.40038378,5.34727094 9.00047973,4.83038791 9.70698804,4.83038791 L13.1121836,4.83038791 Z" id="Fill-7" fill="#FFFFFF"></path>
            <path d="M29.136,12.176 L31.808,12.176 L31.44,10.896 C31.104,9.792 30.8,8.592 30.496,7.44 L30.432,7.44 C30.144,8.608 29.84,9.792 29.504,10.896 L29.136,12.176 Z M33.04,16.464 L32.224,13.632 L28.704,13.632 L27.888,16.464 L26,16.464 L29.408,6 L31.584,6 L34.992,16.464 L33.04,16.464 Z M35.7581176,16.464 L35.7581176,14.96 L38.0301176,14.96 L38.0301176,8.272 L36.1581176,8.272 L36.1581176,7.12 C37.1661176,6.928 37.8701176,6.672 38.5101176,6.288 L39.8861176,6.288 L39.8861176,14.96 L41.8861176,14.96 L41.8861176,16.464 L35.7581176,16.464 Z" id="A1" fill="#1A3561"></path>
        </g>
    </g>
</svg>