<?xml version="1.0" encoding="UTF-8"?>
<svg width="48px" height="24px" viewBox="0 0 48 24" version="1.1" xmlns="http://www.w3.org/2000/svg" xmlns:xlink="http://www.w3.org/1999/xlink">
    <!-- Generator: Sketch 48 (47235) - http://www.bohemiancoding.com/sketch -->
    <title>ox3000_a2</title>
    <desc>Created with Sketch.</desc>
    <defs>
        <rect id="path-1" x="0" y="0" width="48" height="24" rx="12"></rect>
    </defs>
    <g id="entry-icons" stroke="none" stroke-width="1" fill="none" fill-rule="evenodd" transform="translate(-543.000000, -144.000000)">
        <g id="ox3000_a2" transform="translate(543.000000, 144.000000)">
            <g id="Rectangle">
                <use fill="#FFFFFF" fill-rule="evenodd" xlink:href="#path-1"></use>
                <rect stroke="#1A3561" stroke-width="1" x="0.5" y="0.5" width="47" height="23" rx="11.5"></rect>
            </g>
            <path d="M0,12 C0,18.6277902 5.37220982,24 12,24 C18.6277902,24 24,18.6277902 24,12 C24,5.37220982 18.6277902,0 12,0 C5.37220982,0 0,5.37220982 0,12 Z" id="Fill-5" fill="#1A3561"></path>
            <path d="M6.96468912,3.91490543 C6.32272602,4.51118429 6,5.22898737 6,6.06507402 C6,6.91898423 6.32272602,7.63516698 6.9856227,8.23306616 C7.62933027,8.79045726 8.40038378,9.08859669 9.3005277,9.08859669 L9.8779456,9.08859669 L9.90062365,20.0322581 L17.6129032,20.0144345 L17.6129032,18.0036137 L15.7271366,18.0036137 L15.7271366,16.1126968 L17.6129032,16.1126968 L17.5902252,14.0840524 L13.0912501,14.1034963 L13.0912501,9.08859669 L13.5622556,9.08859669 C14.4623995,9.06915282 15.233453,8.77101339 15.8771606,8.19417841 C16.4981901,7.59627923 16.8191717,6.88009648 16.8191717,6.02456595 C16.8191717,5.18847929 16.4981901,4.47229654 15.8544825,3.87439736 C15.2125194,3.2781185 14.4414659,2.97997908 13.541322,3.00104328 L9.27959412,3.00104328 C8.37770574,3.00104328 7.60665223,3.29756238 6.96468912,3.91490543 Z M13.1121836,4.83038791 C13.8623036,4.83038791 14.4205324,5.32782707 14.4205324,6.02456595 C14.4205324,6.68079675 13.8623036,7.25763173 13.1121836,7.25763173 L9.70698804,7.25763173 C9.00047973,7.25763173 8.40038378,6.70024063 8.40038378,6.04400982 C8.40038378,5.34727094 9.00047973,4.83038791 9.70698804,4.83038791 L13.1121836,4.83038791 Z" id="Fill-7" fill="#FFFFFF"></path>
            <g id="Group-14" transform="translate(26.000000, 6.000000)" fill="#1A3561">
                <path d="M5.97951484,6.04861935 L5.1653729,3.52502991 C4.96779871,2.90173372 4.79917935,2.20242581 4.64588903,1.60784516 L4.61523097,1.60784516 C4.46023742,2.20242581 4.30865032,2.91693607 4.12470194,3.52502991 L3.32588903,6.04861935 L5.97951484,6.04861935 Z M3.01930839,7.46243754 L2.13022452,10.3677748 L0.183437419,10.3677748 L3.49621161,0.118015249 L5.90286968,0.118015249 L9.25992774,10.3677748 L7.23649548,10.3677748 L6.30142452,7.46243754 L3.01930839,7.46243754 Z" id="Fill-10"></path>
                <path d="M10.1319794,10.367268 L10.1319794,9.22709208 L11.3123148,8.14772551 C13.6576568,5.98730323 14.7630503,4.80152023 14.7783794,3.49411848 C14.7783794,2.61069326 14.3031794,1.83537361 13.0002116,1.83537361 C12.1247535,1.83537361 11.373631,2.27793079 10.8677729,2.65798944 L10.3159277,1.33369619 C11.0363923,0.757696188 12.1247535,0.315139003 13.3834374,0.315139003 C15.5908181,0.315139003 16.6638503,1.69855249 16.6638503,3.31000117 C16.6638503,5.04475777 15.4068697,6.44506276 13.674689,8.04130909 L12.799231,8.7845349 L12.799231,8.81662874 L16.8937858,8.81662874 L16.8937858,10.367268 L10.1319794,10.367268 Z" id="Fill-12"></path>
            </g>
        </g>
    </g>
</svg>