<?xml version="1.0" encoding="UTF-8"?>
<svg width="48px" height="24px" viewBox="0 0 48 24" version="1.1" xmlns="http://www.w3.org/2000/svg" xmlns:xlink="http://www.w3.org/1999/xlink">
    <!-- Generator: Sketch 48 (47235) - http://www.bohemiancoding.com/sketch -->
    <title>ox3000_c2</title>
    <desc>Created with Sketch.</desc>
    <defs>
        <rect id="path-1" x="0" y="0" width="48" height="24" rx="12"></rect>
    </defs>
    <g id="entry-icons" stroke="none" stroke-width="1" fill="none" fill-rule="evenodd" transform="translate(-543.000000, -304.000000)">
        <g id="ox3000_c2" transform="translate(543.000000, 304.000000)">
            <g id="Rectangle">
                <use fill="#FFFFFF" fill-rule="evenodd" xlink:href="#path-1"></use>
                <rect stroke="#1A3561" stroke-width="1" x="0.5" y="0.5" width="47" height="23" rx="11.5"></rect>
            </g>
            <path d="M0,12 C0,18.6277902 5.37220982,24 12,24 C18.6277902,24 24,18.6277902 24,12 C24,5.37220982 18.6277902,0 12,0 C5.37220982,0 0,5.37220982 0,12 Z" id="Fill-5" fill="#1A3561"></path>
            <path d="M6.96468912,3.91490543 C6.32272602,4.51118429 6,5.22898737 6,6.06507402 C6,6.91898423 6.32272602,7.63516698 6.9856227,8.23306616 C7.62933027,8.79045726 8.40038378,9.08859669 9.3005277,9.08859669 L9.8779456,9.08859669 L9.90062365,20.0322581 L17.6129032,20.0144345 L17.6129032,18.0036137 L15.7271366,18.0036137 L15.7271366,16.1126968 L17.6129032,16.1126968 L17.5902252,14.0840524 L13.0912501,14.1034963 L13.0912501,9.08859669 L13.5622556,9.08859669 C14.4623995,9.06915282 15.233453,8.77101339 15.8771606,8.19417841 C16.4981901,7.59627923 16.8191717,6.88009648 16.8191717,6.02456595 C16.8191717,5.18847929 16.4981901,4.47229654 15.8544825,3.87439736 C15.2125194,3.2781185 14.4414659,2.97997908 13.541322,3.00104328 L9.27959412,3.00104328 C8.37770574,3.00104328 7.60665223,3.29756238 6.96468912,3.91490543 Z M13.1121836,4.83038791 C13.8623036,4.83038791 14.4205324,5.32782707 14.4205324,6.02456595 C14.4205324,6.68079675 13.8623036,7.25763173 13.1121836,7.25763173 L9.70698804,7.25763173 C9.00047973,7.25763173 8.40038378,6.70024063 8.40038378,6.04400982 C8.40038378,5.34727094 9.00047973,4.83038791 9.70698804,4.83038791 L13.1121836,4.83038791 Z" id="Fill-7" fill="#FFFFFF"></path>
            <path d="M27,12.206 C27,8.782 29.144,6.75 31.832,6.75 C33.096,6.75 34.152,7.374 34.808,8.078 L33.768,9.23 C33.24,8.702 32.648,8.366 31.848,8.366 C30.12,8.366 28.904,9.806 28.904,12.158 C28.904,14.542 30.024,15.982 31.784,15.982 C32.712,15.982 33.384,15.598 33.976,14.942 L35.016,16.078 C34.168,17.054 33.064,17.598 31.752,17.598 C29.08,17.598 27,15.678 27,12.206 Z" id="C1" fill="#1A3561"></path>
            <path d="M36,17.028 L36,15.948 L37.104,14.916 C39.312,12.852 40.368,11.724 40.368,10.5 C40.368,9.66 39.912,8.916 38.688,8.916 C37.872,8.916 37.152,9.324 36.672,9.708 L36.144,8.46 C36.816,7.908 37.848,7.5 39.024,7.5 C41.112,7.5 42.12,8.82 42.12,10.356 C42.12,12.012 40.944,13.332 39.312,14.844 L38.496,15.564 L38.496,15.588 L42.36,15.588 L42.36,17.028 L36,17.028 Z" id="Shape" fill="#1A3561" fill-rule="nonzero"></path>
        </g>
    </g>
</svg>