<?xml version="1.0" encoding="UTF-8"?>
<svg width="48px" height="24px" viewBox="0 0 48 24" version="1.1" xmlns="http://www.w3.org/2000/svg" xmlns:xlink="http://www.w3.org/1999/xlink">
    <!-- Generator: Sketch 48 (47235) - http://www.bohemiancoding.com/sketch -->
    <title>ox3000_b1</title>
    <desc>Created with Sketch.</desc>
    <defs>
        <rect id="path-1" x="0" y="0" width="48" height="24" rx="12"></rect>
    </defs>
    <g id="entry-icons" stroke="none" stroke-width="1" fill="none" fill-rule="evenodd" transform="translate(-543.000000, -184.000000)">
        <g id="ox3000_b1" transform="translate(543.000000, 184.000000)">
            <g id="Rectangle">
                <use fill="#FFFFFF" fill-rule="evenodd" xlink:href="#path-1"></use>
                <rect stroke="#1A3561" stroke-width="1" x="0.5" y="0.5" width="47" height="23" rx="11.5"></rect>
            </g>
            <path d="M0,12 C0,18.6277902 5.37220982,24 12,24 C18.6277902,24 24,18.6277902 24,12 C24,5.37220982 18.6277902,0 12,0 C5.37220982,0 0,5.37220982 0,12 Z" id="Fill-5" fill="#1A3561"></path>
            <path d="M6.96468912,3.91490543 C6.32272602,4.51118429 6,5.22898737 6,6.06507402 C6,6.91898423 6.32272602,7.63516698 6.9856227,8.23306616 C7.62933027,8.79045726 8.40038378,9.08859669 9.3005277,9.08859669 L9.8779456,9.08859669 L9.90062365,20.0322581 L17.6129032,20.0144345 L17.6129032,18.0036137 L15.7271366,18.0036137 L15.7271366,16.1126968 L17.6129032,16.1126968 L17.5902252,14.0840524 L13.0912501,14.1034963 L13.0912501,9.08859669 L13.5622556,9.08859669 C14.4623995,9.06915282 15.233453,8.77101339 15.8771606,8.19417841 C16.4981901,7.59627923 16.8191717,6.88009648 16.8191717,6.02456595 C16.8191717,5.18847929 16.4981901,4.47229654 15.8544825,3.87439736 C15.2125194,3.2781185 14.4414659,2.97997908 13.541322,3.00104328 L9.27959412,3.00104328 C8.37770574,3.00104328 7.60665223,3.29756238 6.96468912,3.91490543 Z M13.1121836,4.83038791 C13.8623036,4.83038791 14.4205324,5.32782707 14.4205324,6.02456595 C14.4205324,6.68079675 13.8623036,7.25763173 13.1121836,7.25763173 L9.70698804,7.25763173 C9.00047973,7.25763173 8.40038378,6.70024063 8.40038378,6.04400982 C8.40038378,5.34727094 9.00047973,4.83038791 9.70698804,4.83038791 L13.1121836,4.83038791 Z" id="Fill-7" fill="#FFFFFF"></path>
            <path d="M27,16.964 L27,6.5 L30.344,6.5 C32.504,6.5 34.088,7.156 34.088,9.076 C34.088,10.068 33.512,11.028 32.296,11.348 L32.296,11.412 C33.8,11.668 34.632,12.484 34.632,13.892 C34.632,15.988 32.92,16.964 30.616,16.964 L27,16.964 Z M28.856,10.836 L30.184,10.836 C31.64,10.836 32.264,10.276 32.264,9.3 C32.264,8.34 31.576,7.94 30.216,7.94 L28.856,7.94 L28.856,10.836 Z M28.856,15.524 L30.424,15.524 C31.96,15.524 32.824,14.948 32.824,13.764 C32.824,12.676 31.992,12.164 30.424,12.164 L28.856,12.164 L28.856,15.524 Z M36.0221176,16.964 L36.0221176,15.46 L38.2941176,15.46 L38.2941176,8.772 L36.4221176,8.772 L36.4221176,7.62 C37.4301176,7.428 38.1341176,7.172 38.7741176,6.788 L40.1501176,6.788 L40.1501176,15.46 L42.1501176,15.46 L42.1501176,16.964 L36.0221176,16.964 Z" id="B1" fill="#1A3561"></path>
        </g>
    </g>
</svg>