<?xml version="1.0" encoding="UTF-8"?>
<svg width="48px" height="24px" viewBox="0 0 48 24" version="1.1" xmlns="http://www.w3.org/2000/svg" xmlns:xlink="http://www.w3.org/1999/xlink">
    <!-- Generator: Sketch 48 (47235) - http://www.bohemiancoding.com/sketch -->
    <title>ox3000_b2_hover</title>
    <desc>Created with Sketch.</desc>
    <defs>
        <rect id="path-1" x="0" y="0" width="48" height="24" rx="12"></rect>
    </defs>
    <g id="Artboard" stroke="none" stroke-width="1" fill="none" fill-rule="evenodd" transform="translate(-103.000000, -213.000000)">
        <g id="ox3000_b2_hover" transform="translate(103.000000, 213.000000)">
            <g id="Rectangle">
                <use fill="#1A3561" fill-rule="evenodd" xlink:href="#path-1"></use>
                <rect stroke="#1A3561" stroke-width="1" x="0.5" y="0.5" width="47" height="23" rx="11.5"></rect>
            </g>
            <path d="M0,12 C0,18.6277902 5.37220982,24 12,24 C18.6277902,24 24,18.6277902 24,12 C24,5.37220982 18.6277902,0 12,0 C5.37220982,0 0,5.37220982 0,12 Z" id="Fill-5" fill="#1A3561"></path>
            <path d="M6.96468912,3.91490543 C6.32272602,4.51118429 6,5.22898737 6,6.06507402 C6,6.91898423 6.32272602,7.63516698 6.9856227,8.23306616 C7.62933027,8.79045726 8.40038378,9.08859669 9.3005277,9.08859669 L9.8779456,9.08859669 L9.90062365,20.0322581 L17.6129032,20.0144345 L17.6129032,18.0036137 L15.7271366,18.0036137 L15.7271366,16.1126968 L17.6129032,16.1126968 L17.5902252,14.0840524 L13.0912501,14.1034963 L13.0912501,9.08859669 L13.5622556,9.08859669 C14.4623995,9.06915282 15.233453,8.77101339 15.8771606,8.19417841 C16.4981901,7.59627923 16.8191717,6.88009648 16.8191717,6.02456595 C16.8191717,5.18847929 16.4981901,4.47229654 15.8544825,3.87439736 C15.2125194,3.2781185 14.4414659,2.97997908 13.541322,3.00104328 L9.27959412,3.00104328 C8.37770574,3.00104328 7.60665223,3.29756238 6.96468912,3.91490543 Z M13.1121836,4.83038791 C13.8623036,4.83038791 14.4205324,5.32782707 14.4205324,6.02456595 C14.4205324,6.68079675 13.8623036,7.25763173 13.1121836,7.25763173 L9.70698804,7.25763173 C9.00047973,7.25763173 8.40038378,6.70024063 8.40038378,6.04400982 C8.40038378,5.34727094 9.00047973,4.83038791 9.70698804,4.83038791 L13.1121836,4.83038791 Z" id="Fill-7" fill="#FFFFFF"></path>
            <g id="Group" transform="translate(27.000000, 7.000000)" fill="#FFFFFF" fill-rule="nonzero">
                <path d="M0,0.193236715 C0.572953737,0.0724637681 1.64412811,0 2.69039146,0 C4.06049822,0 4.90747331,0.169082126 5.58007117,0.628019324 C6.20284698,0.990338164 6.62633452,1.64251208 6.62633452,2.46376812 C6.62633452,3.35748792 6.05338078,4.20289855 4.95729537,4.58937198 L4.95729537,4.61352657 C6.02846975,4.87922705 7,5.70048309 7,7.0531401 C7,7.92270531 6.60142349,8.59903382 6.02846975,9.0821256 C5.30604982,9.68599034 4.11032028,10 2.26690391,10 C1.2455516,10 0.473309609,9.92753623 0,9.87922705 L0,0.193236715 Z M1.81850534,4.05797101 L2.76512456,4.05797101 C4.03558719,4.05797101 4.75800712,3.47826087 4.75800712,2.65700483 C4.75800712,1.73913043 4.03558719,1.32850242 2.86476868,1.32850242 C2.31672598,1.32850242 2.01779359,1.352657 1.81850534,1.40096618 L1.81850534,4.05797101 Z M1.81850534,8.57487923 C2.06761566,8.59903382 2.36654804,8.62318841 2.79003559,8.62318841 C3.98576512,8.62318841 5.03202847,8.1884058 5.03202847,6.98067633 C5.03202847,5.84541063 4.01067616,5.38647343 2.74021352,5.38647343 L1.81850534,5.38647343 L1.81850534,8.57487923 Z" id="Shape"></path>
                <path d="M8,10 L8,8.86649874 L9.04150943,7.78337531 C11.1245283,5.61712846 12.1207547,4.43324937 12.1207547,3.14861461 C12.1207547,2.26700252 11.690566,1.4861461 10.5358491,1.4861461 C9.76603774,1.4861461 9.08679245,1.91435768 8.63396226,2.31738035 L8.13584906,1.00755668 C8.76981132,0.428211587 9.74339623,0 10.8528302,0 C12.8226415,0 13.7735849,1.38539043 13.7735849,2.99748111 C13.7735849,4.73551637 12.6641509,6.1209068 11.1245283,7.70780856 L10.354717,8.46347607 L10.354717,8.48866499 L14,8.48866499 L14,10 L8,10 Z" id="Shape"></path>
            </g>
        </g>
    </g>
</svg>