<?xml version="1.0" encoding="UTF-8"?>
<svg width="48px" height="24px" viewBox="0 0 48 24" version="1.1" xmlns="http://www.w3.org/2000/svg" xmlns:xlink="http://www.w3.org/1999/xlink">
    <!-- Generator: Sketch 48 (47235) - http://www.bohemiancoding.com/sketch -->
    <title>ox5000_a2_hover</title>
    <desc>Created with Sketch.</desc>
    <defs>
        <rect id="path-1" x="0" y="0" width="48" height="24" rx="12"></rect>
    </defs>
    <g id="Artboard" stroke="none" stroke-width="1" fill="none" fill-rule="evenodd" transform="translate(-169.000000, -133.000000)">
        <g id="ox5000_a2_hover" transform="translate(169.000000, 133.000000)">
            <g id="Rectangle">
                <use fill="#1A3561" fill-rule="evenodd" xlink:href="#path-1"></use>
                <rect stroke="#1A3561" stroke-width="1" x="0.5" y="0.5" width="47" height="23" rx="11.5"></rect>
            </g>
            <circle id="Oval" fill="#1A3561" fill-rule="nonzero" cx="12" cy="12" r="12"></circle>
            <path d="M8.952,3.00128901 L12.744,3.00128901 C13.56,2.97728901 14.232,3.28928901 14.808,3.86528901 C15.384,4.44128901 15.672,5.16128901 15.672,5.97728901 C15.672,6.81728901 15.384,7.53728901 14.832,8.11328901 C14.256,8.68928901 13.56,8.97728901 12.768,9.00128901 L12.336,9.00128901 L12.336,13.945289 L16.32,13.921289 L16.344,15.913289 L14.664,15.913289 L14.664,17.785289 L16.344,17.785289 L16.344,19.777289 L9.48,19.801289 L9.456,9.00128901 L8.928,9.00128901 C8.136,9.00128901 7.44,8.71328901 6.864,8.16128901 C6.288,7.58528901 6,6.86528901 6,6.00128901 C6,5.18528901 6.288,4.48928901 6.864,3.88928901 C7.464,3.28928901 8.16,3.00128901 8.952,3.00128901 Z M9.336,4.80128901 C8.712,4.80128901 8.16,5.32928901 8.16,6.00128901 C8.16,6.64928901 8.688,7.20128901 9.336,7.20128901 L12.36,7.20128901 C13.032,7.20128901 13.536,6.62528901 13.536,5.97728901 C13.536,5.30528901 13.032,4.80128901 12.36,4.80128901 L9.336,4.80128901 Z" id="Shape" fill="#FFFFFF" fill-rule="nonzero"></path>
            <g id="Group" transform="translate(15.000000, 7.000000)" stroke="#FFFFFF" stroke-width="0.942857143">
                <path d="M3.82473146,3.88954954 L6.85714443,3.88954954 L6.85714443,4.68186647 L3.82473146,4.68186647 L3.82473146,7.71427944 L3.03241453,7.71427944 L3.03241453,4.68186647 L1.56947544e-06,4.68186647 L1.56947544e-06,3.88954954 L3.03241453,3.88954954 L3.03241453,0.857136579 L3.82473146,0.857136579 L3.82473146,3.88954954 Z" id="Combined-Shape"></path>
            </g>
            <g id="Group-14" transform="translate(26.000000, 6.000000)" fill="#FFFFFF">
                <path d="M5.74723213,5.78609097 L4.93995121,3.32399473 C4.74404203,2.71588662 4.57684369,2.03361898 4.42484519,1.4535267 L4.39444549,1.4535267 C4.24075812,2.03361898 4.09044849,2.73071852 3.90805029,3.32399473 L3.11596922,5.78609097 L5.74723213,5.78609097 Z M2.81197223,7.16545814 L1.93038093,10 L0,10 L3.28485645,0 L5.67123288,0 L9,10 L6.99361982,10 L6.06642897,7.16545814 L2.81197223,7.16545814 Z" id="Fill-10"></path>
                <path d="M10,10 L10,8.86573685 L11.2219144,7.79196774 C13.6498741,5.64274912 14.7942065,4.46311544 14.8100756,3.1624937 C14.8100756,2.28364981 14.318136,1.51235087 12.9692695,1.51235087 C12.0629723,1.51235087 11.2853904,1.95261301 10.7617128,2.33070072 L10.1904282,1.01327508 C10.936272,0.440262141 12.0629723,0 13.365995,0 C15.6511335,0 16.7619647,1.37623929 16.7619647,2.9793312 C16.7619647,4.70509158 15.4607053,6.09813477 13.6675063,7.68610318 L12.7612091,8.42547471 L12.7612091,8.45740212 L17,8.45740212 L17,10 L10,10 Z" id="Fill-12"></path>
            </g>
        </g>
    </g>
</svg>