<?xml version="1.0" encoding="UTF-8"?>
<svg width="48px" height="24px" viewBox="0 0 48 24" version="1.1" xmlns="http://www.w3.org/2000/svg" xmlns:xlink="http://www.w3.org/1999/xlink">
    <!-- Generator: Sketch 48 (47235) - http://www.bohemiancoding.com/sketch -->
    <title>ox5000_b1</title>
    <desc>Created with Sketch.</desc>
    <defs>
        <rect id="path-1" x="0" y="0" width="48" height="24" rx="12"></rect>
    </defs>
    <g id="entry-icons" stroke="none" stroke-width="1" fill="none" fill-rule="evenodd" transform="translate(-609.000000, -184.000000)">
        <g id="ox5000_b1" transform="translate(609.000000, 184.000000)">
            <g id="Rectangle">
                <use fill="#FFFFFF" fill-rule="evenodd" xlink:href="#path-1"></use>
                <rect stroke="#1A3561" stroke-width="1" x="0.5" y="0.5" width="47" height="23" rx="11.5"></rect>
            </g>
            <circle id="Oval" fill="#1A3561" fill-rule="nonzero" cx="12" cy="12" r="12"></circle>
            <path d="M8.952,3.00128901 L12.744,3.00128901 C13.56,2.97728901 14.232,3.28928901 14.808,3.86528901 C15.384,4.44128901 15.672,5.16128901 15.672,5.97728901 C15.672,6.81728901 15.384,7.53728901 14.832,8.11328901 C14.256,8.68928901 13.56,8.97728901 12.768,9.00128901 L12.336,9.00128901 L12.336,13.945289 L16.32,13.921289 L16.344,15.913289 L14.664,15.913289 L14.664,17.785289 L16.344,17.785289 L16.344,19.777289 L9.48,19.801289 L9.456,9.00128901 L8.928,9.00128901 C8.136,9.00128901 7.44,8.71328901 6.864,8.16128901 C6.288,7.58528901 6,6.86528901 6,6.00128901 C6,5.18528901 6.288,4.48928901 6.864,3.88928901 C7.464,3.28928901 8.16,3.00128901 8.952,3.00128901 Z M9.336,4.80128901 C8.712,4.80128901 8.16,5.32928901 8.16,6.00128901 C8.16,6.64928901 8.688,7.20128901 9.336,7.20128901 L12.36,7.20128901 C13.032,7.20128901 13.536,6.62528901 13.536,5.97728901 C13.536,5.30528901 13.032,4.80128901 12.36,4.80128901 L9.336,4.80128901 Z" id="Shape" fill="#FFFFFF" fill-rule="nonzero"></path>
            <g id="Group" transform="translate(15.000000, 7.000000)" stroke="#FFFFFF" stroke-width="0.942857143">
                <path d="M3.82473146,3.88954954 L6.85714443,3.88954954 L6.85714443,4.68186647 L3.82473146,4.68186647 L3.82473146,7.71427944 L3.03241453,7.71427944 L3.03241453,4.68186647 L1.56947544e-06,4.68186647 L1.56947544e-06,3.88954954 L3.03241453,3.88954954 L3.03241453,0.857136579 L3.82473146,0.857136579 L3.82473146,3.88954954 Z" id="Combined-Shape"></path>
            </g>
            <path d="M27,16.964 L27,6.5 L30.344,6.5 C32.504,6.5 34.088,7.156 34.088,9.076 C34.088,10.068 33.512,11.028 32.296,11.348 L32.296,11.412 C33.8,11.668 34.632,12.484 34.632,13.892 C34.632,15.988 32.92,16.964 30.616,16.964 L27,16.964 Z M28.856,10.836 L30.184,10.836 C31.64,10.836 32.264,10.276 32.264,9.3 C32.264,8.34 31.576,7.94 30.216,7.94 L28.856,7.94 L28.856,10.836 Z M28.856,15.524 L30.424,15.524 C31.96,15.524 32.824,14.948 32.824,13.764 C32.824,12.676 31.992,12.164 30.424,12.164 L28.856,12.164 L28.856,15.524 Z M36.0221176,16.964 L36.0221176,15.46 L38.2941176,15.46 L38.2941176,8.772 L36.4221176,8.772 L36.4221176,7.62 C37.4301176,7.428 38.1341176,7.172 38.7741176,6.788 L40.1501176,6.788 L40.1501176,15.46 L42.1501176,15.46 L42.1501176,16.964 L36.0221176,16.964 Z" id="B1" fill="#1A3561"></path>
        </g>
    </g>
</svg>