<?xml version="1.0" encoding="UTF-8"?>
<svg width="48px" height="24px" viewBox="0 0 48 24" version="1.1" xmlns="http://www.w3.org/2000/svg" xmlns:xlink="http://www.w3.org/1999/xlink">
    <!-- Generator: Sketch 48 (47235) - http://www.bohemiancoding.com/sketch -->
    <title>ox5000_a2</title>
    <desc>Created with Sketch.</desc>
    <defs>
        <rect id="path-1" x="0" y="0" width="48" height="24" rx="12"></rect>
    </defs>
    <g id="entry-icons" stroke="none" stroke-width="1" fill="none" fill-rule="evenodd" transform="translate(-609.000000, -144.000000)">
        <g id="ox5000_a2" transform="translate(609.000000, 144.000000)">
            <g id="Rectangle">
                <use fill="#FFFFFF" fill-rule="evenodd" xlink:href="#path-1"></use>
                <rect stroke="#1A3561" stroke-width="1" x="0.5" y="0.5" width="47" height="23" rx="11.5"></rect>
            </g>
            <circle id="Oval" fill="#1A3561" fill-rule="nonzero" cx="12" cy="12" r="12"></circle>
            <path d="M8.952,3.00128901 L12.744,3.00128901 C13.56,2.97728901 14.232,3.28928901 14.808,3.86528901 C15.384,4.44128901 15.672,5.16128901 15.672,5.97728901 C15.672,6.81728901 15.384,7.53728901 14.832,8.11328901 C14.256,8.68928901 13.56,8.97728901 12.768,9.00128901 L12.336,9.00128901 L12.336,13.945289 L16.32,13.921289 L16.344,15.913289 L14.664,15.913289 L14.664,17.785289 L16.344,17.785289 L16.344,19.777289 L9.48,19.801289 L9.456,9.00128901 L8.928,9.00128901 C8.136,9.00128901 7.44,8.71328901 6.864,8.16128901 C6.288,7.58528901 6,6.86528901 6,6.00128901 C6,5.18528901 6.288,4.48928901 6.864,3.88928901 C7.464,3.28928901 8.16,3.00128901 8.952,3.00128901 Z M9.336,4.80128901 C8.712,4.80128901 8.16,5.32928901 8.16,6.00128901 C8.16,6.64928901 8.688,7.20128901 9.336,7.20128901 L12.36,7.20128901 C13.032,7.20128901 13.536,6.62528901 13.536,5.97728901 C13.536,5.30528901 13.032,4.80128901 12.36,4.80128901 L9.336,4.80128901 Z" id="Shape" fill="#FFFFFF" fill-rule="nonzero"></path>
            <g id="Group" transform="translate(15.000000, 7.000000)" stroke="#FFFFFF" stroke-width="0.942857143">
                <path d="M3.82473146,3.88954954 L6.85714443,3.88954954 L6.85714443,4.68186647 L3.82473146,4.68186647 L3.82473146,7.71427944 L3.03241453,7.71427944 L3.03241453,4.68186647 L1.56947544e-06,4.68186647 L1.56947544e-06,3.88954954 L3.03241453,3.88954954 L3.03241453,0.857136579 L3.82473146,0.857136579 L3.82473146,3.88954954 Z" id="Combined-Shape"></path>
            </g>
            <g id="Group-14" transform="translate(26.000000, 6.000000)" fill="#1A3561">
                <path d="M5.97951484,6.04861935 L5.1653729,3.52502991 C4.96779871,2.90173372 4.79917935,2.20242581 4.64588903,1.60784516 L4.61523097,1.60784516 C4.46023742,2.20242581 4.30865032,2.91693607 4.12470194,3.52502991 L3.32588903,6.04861935 L5.97951484,6.04861935 Z M3.01930839,7.46243754 L2.13022452,10.3677748 L0.183437419,10.3677748 L3.49621161,0.118015249 L5.90286968,0.118015249 L9.25992774,10.3677748 L7.23649548,10.3677748 L6.30142452,7.46243754 L3.01930839,7.46243754 Z" id="Fill-10"></path>
                <path d="M10.1319794,10.367268 L10.1319794,9.22709208 L11.3123148,8.14772551 C13.6576568,5.98730323 14.7630503,4.80152023 14.7783794,3.49411848 C14.7783794,2.61069326 14.3031794,1.83537361 13.0002116,1.83537361 C12.1247535,1.83537361 11.373631,2.27793079 10.8677729,2.65798944 L10.3159277,1.33369619 C11.0363923,0.757696188 12.1247535,0.315139003 13.3834374,0.315139003 C15.5908181,0.315139003 16.6638503,1.69855249 16.6638503,3.31000117 C16.6638503,5.04475777 15.4068697,6.44506276 13.674689,8.04130909 L12.799231,8.7845349 L12.799231,8.81662874 L16.8937858,8.81662874 L16.8937858,10.367268 L10.1319794,10.367268 Z" id="Fill-12"></path>
            </g>
        </g>
    </g>
</svg>