<?xml version="1.0" encoding="UTF-8"?>
<svg width="48px" height="24px" viewBox="0 0 48 24" version="1.1" xmlns="http://www.w3.org/2000/svg" xmlns:xlink="http://www.w3.org/1999/xlink">
    <!-- Generator: Sketch 48 (47235) - http://www.bohemiancoding.com/sketch -->
    <title>ox5000_b2</title>
    <desc>Created with Sketch.</desc>
    <defs>
        <rect id="path-1" x="0" y="0" width="48" height="24" rx="12"></rect>
    </defs>
    <g id="entry-icons" stroke="none" stroke-width="1" fill="none" fill-rule="evenodd" transform="translate(-609.000000, -224.000000)">
        <g id="ox5000_b2" transform="translate(609.000000, 224.000000)">
            <g id="Rectangle">
                <use fill="#FFFFFF" fill-rule="evenodd" xlink:href="#path-1"></use>
                <rect stroke="#1A3561" stroke-width="1" x="0.5" y="0.5" width="47" height="23" rx="11.5"></rect>
            </g>
            <g id="Group" transform="translate(27.000000, 7.000000)" fill="#1A3561" fill-rule="nonzero">
                <path d="M0.024,0.24 C0.576,0.12 1.608,0.048 2.616,0.048 C3.936,0.048 4.752,0.216 5.4,0.672 C6,1.032 6.408,1.68 6.408,2.496 C6.408,3.384 5.856,4.224 4.8,4.608 L4.8,4.632 C5.832,4.896 6.768,5.712 6.768,7.056 C6.768,7.92 6.384,8.592 5.832,9.072 C5.136,9.672 3.984,9.984 2.208,9.984 C1.224,9.984 0.48,9.912 0.024,9.864 L0.024,0.24 Z M1.776,4.08 L2.688,4.08 C3.912,4.08 4.608,3.504 4.608,2.688 C4.608,1.776 3.912,1.368 2.784,1.368 C2.256,1.368 1.968,1.392 1.776,1.44 L1.776,4.08 Z M1.776,8.568 C2.016,8.592 2.304,8.616 2.712,8.616 C3.864,8.616 4.872,8.184 4.872,6.984 C4.872,5.856 3.888,5.4 2.664,5.4 L1.776,5.4 L1.776,8.568 Z" id="Shape"></path>
                <path d="M7.824,9.84 L7.824,8.76 L8.928,7.728 C11.136,5.664 12.192,4.536 12.192,3.312 C12.192,2.472 11.736,1.728 10.512,1.728 C9.696,1.728 8.976,2.136 8.496,2.52 L7.968,1.272 C8.64,0.72 9.672,0.312 10.848,0.312 C12.936,0.312 13.944,1.632 13.944,3.168 C13.944,4.824 12.768,6.144 11.136,7.656 L10.32,8.376 L10.32,8.4 L14.184,8.4 L14.184,9.84 L7.824,9.84 Z" id="Shape"></path>
            </g>
            <circle id="Oval" fill="#1A3561" fill-rule="nonzero" cx="12" cy="12" r="12"></circle>
            <path d="M8.952,3.00128901 L12.744,3.00128901 C13.56,2.97728901 14.232,3.28928901 14.808,3.86528901 C15.384,4.44128901 15.672,5.16128901 15.672,5.97728901 C15.672,6.81728901 15.384,7.53728901 14.832,8.11328901 C14.256,8.68928901 13.56,8.97728901 12.768,9.00128901 L12.336,9.00128901 L12.336,13.945289 L16.32,13.921289 L16.344,15.913289 L14.664,15.913289 L14.664,17.785289 L16.344,17.785289 L16.344,19.777289 L9.48,19.801289 L9.456,9.00128901 L8.928,9.00128901 C8.136,9.00128901 7.44,8.71328901 6.864,8.16128901 C6.288,7.58528901 6,6.86528901 6,6.00128901 C6,5.18528901 6.288,4.48928901 6.864,3.88928901 C7.464,3.28928901 8.16,3.00128901 8.952,3.00128901 Z M9.336,4.80128901 C8.712,4.80128901 8.16,5.32928901 8.16,6.00128901 C8.16,6.64928901 8.688,7.20128901 9.336,7.20128901 L12.36,7.20128901 C13.032,7.20128901 13.536,6.62528901 13.536,5.97728901 C13.536,5.30528901 13.032,4.80128901 12.36,4.80128901 L9.336,4.80128901 Z" id="Shape" fill="#FFFFFF" fill-rule="nonzero"></path>
            <g id="Group" transform="translate(15.000000, 7.000000)" stroke="#FFFFFF" stroke-width="0.942857143">
                <path d="M3.82473146,3.88954954 L6.85714443,3.88954954 L6.85714443,4.68186647 L3.82473146,4.68186647 L3.82473146,7.71427944 L3.03241453,7.71427944 L3.03241453,4.68186647 L1.56947544e-06,4.68186647 L1.56947544e-06,3.88954954 L3.03241453,3.88954954 L3.03241453,0.857136579 L3.82473146,0.857136579 L3.82473146,3.88954954 Z" id="Combined-Shape"></path>
            </g>
        </g>
    </g>
</svg>